<svg width="40" height="40" viewBox="0 0 40 40" fill="none" xmlns="http://www.w3.org/2000/svg">
<g clip-path="url(#clip0_1_4753)">
<path d="M36.2966 21.947L20 20.1914L3.70338 21.947C2.73369 21.947 1.94775 22.7331 1.94775 23.7026C1.94775 24.6723 2.73385 25.4583 3.70338 25.4583L20.0462 27.4194L36.2966 25.4583C37.2663 25.4583 38.0522 24.6722 38.0522 23.7026C38.0523 22.7331 37.2662 21.947 36.2966 21.947Z" fill="#4CC7B3"/>
<path d="M7.72751 25.4584C6.75782 25.4584 5.97189 24.6723 5.97189 23.7028C5.97189 22.7332 6.75798 21.9472 7.72751 21.9472L22.0121 20.4082L20 20.1914L3.70338 21.947C2.73369 21.947 1.94775 22.7331 1.94775 23.7026C1.94775 24.6723 2.73385 25.4583 3.70338 25.4583L20.0462 27.4194L22.0525 27.1773L7.72751 25.4584Z" fill="#2AAC92"/>
<path d="M36.2966 18.4358L20 16.1682L3.70338 18.4358C2.73369 18.4358 1.94775 19.2219 1.94775 20.1914C1.94775 21.1611 2.73385 21.947 3.70338 21.947H36.2965C37.2662 21.947 38.0521 21.1609 38.0521 20.1914C38.0523 19.2218 37.2662 18.4358 36.2966 18.4358Z" fill="#F9545B"/>
<path d="M5.97181 20.1916C5.97181 19.2219 6.7579 18.4359 7.72743 18.4359L22.012 16.4483L20 16.1682L3.70338 18.4359C2.73369 18.4359 1.94775 19.222 1.94775 20.1915C1.94775 21.1611 2.73385 21.9471 3.70338 21.9471H7.72751C6.7579 21.9472 5.97181 21.1613 5.97181 20.1916Z" fill="#E64047"/>
<path d="M36.9129 28.9698L36.8364 27.0791H3.08718V28.9698C1.74469 28.9698 0.65625 30.0582 0.65625 31.4007C0.65625 32.7432 1.74461 33.8317 3.08718 33.8317L20 36.9378L36.9129 33.8317C38.2554 33.8317 39.3438 32.7433 39.3438 31.4007C39.3438 30.0582 38.2555 28.9698 36.9129 28.9698Z" fill="#A8503C"/>
<path d="M8.42444 34.0373C6.93053 34.0373 5.71952 32.8263 5.71952 31.3325C5.71952 29.8386 6.93053 28.6276 8.42444 28.6276V27.0793H3.08718V28.97C1.74469 28.97 0.65625 30.0584 0.65625 31.401C0.65625 32.7435 1.74461 33.8319 3.08718 33.8319L20 36.9381L22.1093 36.5507L8.42444 34.0373Z" fill="#993E29"/>
<path d="M24.9078 4H15.0921C7.11936 4 0.65625 10.4632 0.65625 18.4358H39.3439C39.3438 10.4632 32.8806 4 24.9078 4Z" fill="#FEE333"/>
<path d="M19.1162 4H15.0921C7.11936 4 0.65625 10.4632 0.65625 18.4358H4.68038C4.68031 10.4632 11.1435 4 19.1162 4Z" fill="#FECE00"/>
<path d="M36.0726 25.4585C37.6841 25.4585 38.1548 26.5005 38.2566 27.419C38.4248 28.9372 36.6064 29.9036 35.4806 28.8712C35.4521 28.845 35.4242 28.8179 35.3969 28.7897C34.6335 28.0016 33.3694 28.0016 32.6059 28.7897C31.8424 29.5779 30.5783 29.5779 29.8148 28.7897C29.0513 28.0016 27.7872 28.0016 27.0237 28.7897C26.2603 29.5779 24.9961 29.5779 24.2326 28.7897C23.4692 28.0016 22.205 28.0016 21.4415 28.7897C20.6781 29.5779 19.4139 29.5779 18.6504 28.7897C17.887 28.0016 16.6228 28.0016 15.8593 28.7897C15.0959 29.5779 13.8318 29.5779 13.0682 28.7897C12.3048 28.0016 11.0407 28.0016 10.2772 28.7897C9.51372 29.5779 8.24958 29.5779 7.48607 28.7897C6.72263 28.0016 5.45849 28.0016 4.69498 28.7897C4.66771 28.8179 4.63975 28.845 4.61131 28.8712C3.48553 29.9036 1.66702 28.9372 1.83538 27.419C1.93717 26.5005 2.40787 25.4585 4.01936 25.4585H36.0726Z" fill="#E6BB00"/>
<path d="M5.85974 27.4189C5.96154 26.5004 6.43224 25.4585 8.04372 25.4585H4.01959C2.40811 25.4585 1.93741 26.5005 1.83561 27.4189C1.66733 28.9371 3.48576 29.9036 4.61154 28.8712C4.64006 28.845 4.66795 28.8179 4.69521 28.7897C5.04326 28.4304 5.49529 28.2355 5.95646 28.2037C5.86638 27.9679 5.82826 27.7031 5.85974 27.4189Z" fill="#CCA600"/>
<path d="M38.2927 33.8318H1.70726C0.764452 33.8318 0 34.5962 0 35.539C0 38.0271 2.01695 40.0441 4.50507 40.0441H35.4949C37.9829 40.0441 39.9999 38.0272 39.9999 35.539C39.9999 34.5962 39.2355 33.8318 38.2927 33.8318Z" fill="#FEE333"/>
<path d="M4.02413 35.539C4.02413 34.5961 4.78851 33.8318 5.7314 33.8318H1.70726C0.764452 33.8318 0 34.5962 0 35.539C0 38.0272 2.01695 40.0441 4.50499 40.0441H8.52912C6.04108 40.0442 4.02413 38.0272 4.02413 35.539Z" fill="#FECE00"/>
<path d="M13.3375 12.859C13.0041 12.859 12.7339 12.5888 12.7339 12.2554V11.0496C12.7339 10.7163 13.0041 10.446 13.3375 10.446C13.6708 10.446 13.9411 10.7163 13.9411 11.0496V12.2554C13.9411 12.5889 13.6708 12.859 13.3375 12.859Z" fill="#3B484A"/>
<path d="M26.6624 12.859C26.3291 12.859 26.0588 12.5888 26.0588 12.2554V11.0496C26.0588 10.7163 26.3291 10.446 26.6624 10.446C26.9958 10.446 27.266 10.7163 27.266 11.0496V12.2554C27.2661 12.5889 26.9958 12.859 26.6624 12.859Z" fill="#3B484A"/>
<path d="M20 13.7501C19.0383 13.7501 18.1363 13.3491 17.5251 12.6498C17.3058 12.3988 17.3313 12.0175 17.5823 11.7981C17.8333 11.5787 18.2146 11.6043 18.434 11.8553C18.8159 12.2922 19.3867 12.5429 20 12.5429C20.6133 12.5429 21.184 12.2922 21.566 11.8553C21.7854 11.6043 22.1667 11.5787 22.4177 11.7982C22.6687 12.0176 22.6944 12.3989 22.4748 12.6499C21.8637 13.349 20.9616 13.7501 20 13.7501Z" fill="#3B484A"/>
</g>
<defs>
<clipPath id="clip0_1_4753">
<rect width="40" height="40" fill="white"/>
</clipPath>
</defs>
</svg>
