<svg width="40" height="40" viewBox="0 0 40 40" fill="none" xmlns="http://www.w3.org/2000/svg">
<g clip-path="url(#clip0_1_4727)">
<path d="M15.0434 6.382C15.0839 6.3198 15.1175 6.26844 15.1437 6.22834L18.6283 4.35935L28.5036 11.4952L35.4552 21.1893L33.7582 24.865C33.7203 24.8899 33.6735 24.9205 33.618 24.9566C33.4477 25.0676 33.1962 25.2305 32.8723 25.4378C32.2245 25.8525 31.2873 26.4448 30.131 27.1543C27.8181 28.5736 24.631 30.4604 21.1327 32.3318C17.6328 34.2041 13.8304 36.0562 10.2852 37.4099C6.72412 38.7696 3.48315 39.6021 1.08373 39.49C0.773766 39.4755 0.524628 39.2263 0.510128 38.9164C0.397983 36.5169 1.23043 33.2759 2.5901 29.7149C3.94374 26.1696 5.79584 22.3672 7.66816 18.8673C9.5396 15.369 11.4264 12.1819 12.8457 9.86895C13.5552 8.71271 14.1475 7.77547 14.5622 7.12768C14.7695 6.80379 14.9324 6.55229 15.0434 6.382Z" fill="#FEE333" stroke="#061737"/>
<mask id="path-2-inside-1_1_4727" fill="white">
<path d="M14.7789 5.87321C14.7779 5.87501 14.777 5.87618 14.7757 5.87806C14.4129 6.42915 14.0645 6.98946 13.7055 7.54289C13.7047 7.54438 13.7037 7.54563 13.7029 7.54711C10.2182 13.0562 -0.381383 30.5514 0.0106467 38.9399C0.0372085 39.5076 0.492599 39.963 1.06033 39.9896C1.25627 39.9987 1.45775 40.0011 1.66338 39.9985C1.63986 39.9173 1.62439 39.8326 1.62033 39.7447C1.22728 31.3335 11.8849 13.7669 15.3403 8.30805C17.8372 9.50609 21.9378 11.7624 25.0877 14.9124C28.8828 18.7074 31.402 23.9383 32.3089 26.0109C32.3521 26.1097 32.4 26.2053 32.4514 26.2984C33.5322 25.6148 34.1522 25.2046 34.1522 25.2046L36.0311 21.1348L28.8624 11.1379L18.6675 3.77111L14.7956 5.8479C14.7956 5.8479 14.7938 5.85056 14.7912 5.85446C14.7907 5.85517 14.7903 5.85595 14.7896 5.85673C14.7871 5.86079 14.7836 5.86626 14.7789 5.87321Z"/>
</mask>
<path d="M14.7789 5.87321C14.7779 5.87501 14.777 5.87618 14.7757 5.87806C14.4129 6.42915 14.0645 6.98946 13.7055 7.54289C13.7047 7.54438 13.7037 7.54563 13.7029 7.54711C10.2182 13.0562 -0.381383 30.5514 0.0106467 38.9399C0.0372085 39.5076 0.492599 39.963 1.06033 39.9896C1.25627 39.9987 1.45775 40.0011 1.66338 39.9985C1.63986 39.9173 1.62439 39.8326 1.62033 39.7447C1.22728 31.3335 11.8849 13.7669 15.3403 8.30805C17.8372 9.50609 21.9378 11.7624 25.0877 14.9124C28.8828 18.7074 31.402 23.9383 32.3089 26.0109C32.3521 26.1097 32.4 26.2053 32.4514 26.2984C33.5322 25.6148 34.1522 25.2046 34.1522 25.2046L36.0311 21.1348L28.8624 11.1379L18.6675 3.77111L14.7956 5.8479C14.7956 5.8479 14.7938 5.85056 14.7912 5.85446C14.7907 5.85517 14.7903 5.85595 14.7896 5.85673C14.7871 5.86079 14.7836 5.86626 14.7789 5.87321Z" fill="#FECE00"/>
<path d="M14.7789 5.87321L13.9455 5.32068L13.9348 5.33677L13.9247 5.35327L14.7789 5.87321ZM14.7757 5.87806L13.9437 5.32335L13.9405 5.32817L14.7757 5.87806ZM13.7055 7.54289L12.8665 6.99871L12.8528 7.01995L12.8401 7.04186L13.7055 7.54289ZM13.7029 7.54711L14.548 8.08168L14.5585 8.06511L14.5683 8.04815L13.7029 7.54711ZM0.0106467 38.9399L-0.988262 38.9866L-0.988258 38.9866L0.0106467 38.9399ZM1.06033 39.9896L1.0136 40.9885L1.01373 40.9885L1.06033 39.9896ZM1.66338 39.9985L1.67591 40.9985L2.98905 40.982L2.62395 39.7205L1.66338 39.9985ZM1.62033 39.7447L2.61926 39.6985L2.61924 39.698L1.62033 39.7447ZM15.3403 8.30805L15.7729 7.40645L14.971 7.02172L14.4953 7.7732L15.3403 8.30805ZM25.0877 14.9124L24.3806 15.6195L24.3806 15.6195L25.0877 14.9124ZM32.3089 26.0109L33.225 25.6101L33.225 25.6101L32.3089 26.0109ZM32.4514 26.2984L31.5759 26.7817L32.0889 27.711L32.9859 27.1436L32.4514 26.2984ZM34.1522 25.2046L34.704 26.0386L34.941 25.8818L35.0601 25.6238L34.1522 25.2046ZM36.0311 21.1348L36.939 21.5539L37.1831 21.0253L36.8438 20.552L36.0311 21.1348ZM28.8624 11.1379L29.6751 10.5551L29.5801 10.4228L29.4481 10.3273L28.8624 11.1379ZM18.6675 3.77111L19.2532 2.96058L18.7461 2.59417L18.1949 2.88987L18.6675 3.77111ZM14.7956 5.8479L14.3229 4.96666L14.1054 5.08331L13.9672 5.28776L14.7956 5.8479ZM14.7912 5.85446L15.6233 6.40917L15.6258 6.40531L14.7912 5.85446ZM14.7896 5.85673L14.0088 5.23203L13.9703 5.28015L13.938 5.33263L14.7896 5.85673ZM13.9247 5.35327C13.9298 5.34494 13.9347 5.33729 13.9391 5.33037C13.9435 5.32365 13.947 5.31838 13.949 5.31553C13.9499 5.31416 13.9506 5.31314 13.9507 5.31292C13.9508 5.31282 13.9509 5.31272 13.9507 5.3129C13.9507 5.313 13.9505 5.31331 13.9502 5.31368C13.9492 5.3152 13.9467 5.3188 13.9437 5.32335L15.6078 6.43276C15.6054 6.43638 15.6035 6.43913 15.603 6.43984C15.6016 6.4419 15.6042 6.43805 15.6058 6.43568C15.6114 6.42744 15.6214 6.41245 15.6331 6.39316L13.9247 5.35327ZM13.9405 5.32817C13.5818 5.87298 13.2051 6.47673 12.8665 6.99871L14.5445 8.08708C14.9239 7.50219 15.244 6.98531 15.611 6.42794L13.9405 5.32817ZM12.8401 7.04186C12.8488 7.02676 12.8564 7.0147 12.8612 7.00702C12.8637 7.00319 12.8657 7.00013 12.8669 6.99831C12.8679 6.99668 12.8688 6.9953 12.8685 6.99573C12.8685 6.99574 12.8682 6.99622 12.8679 6.99676C12.8675 6.99734 12.8669 6.99824 12.8662 6.99934C12.8648 7.0015 12.8626 7.0049 12.8599 7.00909C12.8546 7.01746 12.8466 7.03023 12.8374 7.04608L14.5683 8.04815C14.5595 8.06325 14.552 8.07531 14.5471 8.08298C14.5447 8.08682 14.5427 8.08988 14.5415 8.0917C14.5404 8.09333 14.5395 8.09471 14.5398 8.09428C14.5398 8.09426 14.5401 8.09379 14.5405 8.09325C14.5409 8.09267 14.5415 8.09177 14.5422 8.09067C14.5436 8.08851 14.5458 8.0851 14.5485 8.08092C14.5538 8.07254 14.5618 8.05977 14.5709 8.04393L12.8401 7.04186ZM12.8577 7.01254C11.1078 9.77911 7.56605 15.5632 4.50745 21.7187C2.97843 24.7959 1.56082 27.9845 0.548362 30.9472C-0.456765 33.8885 -1.09519 36.6986 -0.988262 38.9866L1.00956 38.8932C0.920471 36.987 1.45998 34.4644 2.44091 31.5939C3.41451 28.7449 4.79107 25.6425 6.29853 22.6087C9.31286 16.5422 12.8133 10.8242 14.548 8.08168L12.8577 7.01254ZM-0.988258 38.9866C-0.937576 40.0699 -0.069683 40.9378 1.0136 40.9885L1.10707 38.9907C1.05488 38.9882 1.012 38.9453 1.00956 38.8931L-0.988258 38.9866ZM1.01373 40.9885C1.233 40.9987 1.45457 41.0012 1.67591 40.9985L1.65084 38.9986C1.46093 39.001 1.27954 38.9987 1.10693 38.9906L1.01373 40.9885ZM2.62395 39.7205C2.62171 39.7128 2.62054 39.7073 2.61995 39.7038C2.61935 39.7004 2.61927 39.6987 2.61926 39.6985L0.621395 39.7909C0.62952 39.9667 0.660202 40.1294 0.702797 40.2766L2.62395 39.7205ZM2.61924 39.698C2.52991 37.7865 3.07264 35.2555 4.05844 32.3758C5.03686 29.5176 6.41965 26.4057 7.93247 23.3646C10.9575 17.2837 14.4651 11.5603 16.1852 8.84289L14.4953 7.7732C12.76 10.5146 9.21113 16.3039 6.14181 22.4738C4.60744 25.5582 3.18356 28.7562 2.16624 31.728C1.1563 34.6783 0.514221 37.4973 0.621418 39.7914L2.61924 39.698ZM14.9077 9.20964C17.3683 10.3902 21.3494 12.5882 24.3806 15.6195L25.7948 14.2053C22.5262 10.9366 18.3062 8.62195 15.7729 7.40645L14.9077 9.20964ZM24.3806 15.6195C28.0384 19.2772 30.4973 24.3652 31.3927 26.4118L33.225 25.6101C32.3068 23.5114 29.7272 18.1375 25.7948 14.2053L24.3806 15.6195ZM31.3927 26.4118C31.4497 26.5419 31.5115 26.6651 31.5759 26.7817L33.3268 25.8152C33.2884 25.7455 33.2545 25.6775 33.225 25.6101L31.3927 26.4118ZM32.9859 27.1436C33.5297 26.7996 33.958 26.5242 34.2509 26.3344C34.3974 26.2394 34.5101 26.1659 34.5864 26.1159C34.6246 26.0909 34.6536 26.0718 34.6733 26.0588C34.6832 26.0523 34.6907 26.0474 34.6958 26.044C34.6984 26.0423 34.7003 26.041 34.7017 26.0401C34.7024 26.0397 34.7029 26.0393 34.7033 26.0391C34.7035 26.039 34.7036 26.0389 34.7037 26.0388C34.7038 26.0387 34.7038 26.0387 34.7039 26.0387C34.7039 26.0387 34.7039 26.0387 34.7039 26.0387C34.7039 26.0386 34.704 26.0386 34.1522 25.2046C33.6005 24.3706 33.6005 24.3706 33.6005 24.3706C33.6005 24.3706 33.6005 24.3706 33.6005 24.3706C33.6005 24.3706 33.6005 24.3706 33.6005 24.3706C33.6005 24.3706 33.6004 24.3707 33.6003 24.3707C33.6 24.3709 33.5997 24.3711 33.5991 24.3715C33.5981 24.3722 33.5964 24.3733 33.5942 24.3748C33.5897 24.3777 33.5828 24.3823 33.5736 24.3883C33.5552 24.4005 33.5274 24.4187 33.4905 24.4429C33.4168 24.4911 33.3069 24.5629 33.1633 24.656C32.876 24.8421 32.4539 25.1136 31.9168 25.4533L32.9859 27.1436ZM35.0601 25.6238L36.939 21.5539L35.1232 20.7156L33.2443 24.7855L35.0601 25.6238ZM36.8438 20.552L29.6751 10.5551L28.0498 11.7206L35.2185 21.7175L36.8438 20.552ZM29.4481 10.3273L19.2532 2.96058L18.0818 4.58165L28.2767 11.9484L29.4481 10.3273ZM18.1949 2.88987L14.3229 4.96666L15.2683 6.72914L19.1402 4.65235L18.1949 2.88987ZM14.7956 5.8479C13.9672 5.28776 13.9672 5.28777 13.9672 5.28778C13.9672 5.28778 13.9672 5.28779 13.9672 5.28779C13.9672 5.2878 13.9672 5.28781 13.9671 5.28782C13.9671 5.28784 13.9671 5.28786 13.9671 5.28787C13.9671 5.28791 13.9671 5.28795 13.967 5.28798C13.967 5.28806 13.9669 5.28814 13.9669 5.28823C13.9668 5.28839 13.9666 5.28857 13.9665 5.28876C13.9663 5.28914 13.966 5.28957 13.9656 5.29005C13.965 5.29101 13.9642 5.29217 13.9633 5.29349C13.9616 5.29612 13.9593 5.29958 13.9566 5.30362L15.6258 6.40531C15.6257 6.40544 15.6256 6.40562 15.6254 6.40594C15.6253 6.40612 15.6251 6.40637 15.6249 6.4067C15.6248 6.40687 15.6246 6.40706 15.6245 6.40729C15.6244 6.4074 15.6243 6.40751 15.6243 6.40764C15.6242 6.4077 15.6242 6.40777 15.6241 6.40783C15.6241 6.40787 15.6241 6.4079 15.6241 6.40793C15.624 6.40795 15.624 6.40797 15.624 6.40798C15.624 6.408 15.624 6.408 15.624 6.40801C15.624 6.40801 15.624 6.40802 15.624 6.40803C15.624 6.40803 15.624 6.40804 14.7956 5.8479ZM13.9592 5.29976C13.9568 5.30335 13.9549 5.30626 13.9537 5.30798C13.9532 5.30887 13.9527 5.30959 13.9524 5.31002C13.9523 5.31025 13.9521 5.31043 13.9521 5.31054C13.952 5.3106 13.952 5.31065 13.952 5.31068C13.952 5.31069 13.952 5.31071 13.952 5.31072C13.9519 5.31077 13.952 5.31069 13.9519 5.31074C13.9514 5.31151 13.9545 5.30671 13.9583 5.30103C13.9665 5.28882 13.984 5.26299 14.0088 5.23203L15.5705 6.48142C15.5959 6.44969 15.614 6.42308 15.6226 6.4101C15.6249 6.40678 15.6267 6.40404 15.6278 6.40227C15.6284 6.40137 15.6289 6.40063 15.6292 6.40014C15.6295 6.39969 15.6297 6.39931 15.6298 6.39927C15.6306 6.39795 15.6272 6.4032 15.6233 6.40917L13.9592 5.29976ZM13.938 5.33263C13.9408 5.32805 13.9431 5.32451 13.9444 5.3224C13.9458 5.32025 13.9467 5.31875 13.9471 5.31819C13.9476 5.31735 13.9475 5.31766 13.9455 5.32068L15.6124 6.42575C15.6152 6.42157 15.6284 6.4018 15.6413 6.38083L13.938 5.33263Z" fill="#061737" mask="url(#path-2-inside-1_1_4727)"/>
<path d="M15.6044 1.12805L15.6044 1.12803L14.7985 5.84637L14.9983 5.38803C14.9983 5.38803 14.9983 5.38802 14.9983 5.38802C14.5328 5.18508 14.3065 4.65514 14.4819 4.17858C14.4819 4.17857 14.4819 4.17857 14.4819 4.17856L15.6044 1.12805Z" fill="#FB8D4B" stroke="#061737"/>
<path d="M14.9982 5.38811L14.9982 5.38811C14.5327 5.18524 14.3064 4.65514 14.4817 4.17876L14.4817 4.17874L15.6043 1.12828L15.6043 1.12826C15.7942 0.612155 16.3777 0.361453 16.8827 0.578835L16.8827 0.578841C16.9276 0.598176 16.9734 0.618136 17.0201 0.638716C16.6901 0.860238 16.4239 1.1843 16.2755 1.58761L15.153 4.63802C15.153 4.63804 15.153 4.63805 15.153 4.63807C15.06 4.89072 15.0224 5.15045 15.0342 5.40385C15.0221 5.39857 15.0101 5.39332 14.9982 5.38811Z" fill="#E86D24" stroke="#061737"/>
<path d="M4.80023 32.4895C4.80023 31.3344 5.73665 30.3979 6.89179 30.3979C8.04692 30.3979 8.98334 31.3344 8.98334 32.4895C8.98334 33.6446 8.04692 34.5811 6.89179 34.5811C5.73665 34.5811 4.80023 33.6446 4.80023 32.4895Z" fill="#FECE00" stroke="#061737"/>
<path d="M5.60504 33.2942C5.60504 32.1391 6.54146 31.2026 7.6966 31.2026C8.85173 31.2026 9.78815 32.1391 9.78815 33.2942C9.78815 34.4493 8.85173 35.3857 7.6966 35.3857C6.54146 35.3857 5.60504 34.4493 5.60504 33.2942Z" fill="#F9545B" stroke="#061737"/>
<path d="M13.6034 15.0424C13.6034 13.5685 14.7982 12.3738 16.272 12.3738C17.7458 12.3738 18.9406 13.5685 18.9406 15.0424C18.9406 16.5162 17.7458 17.7109 16.272 17.7109C14.7982 17.7109 13.6034 16.5162 13.6034 15.0424Z" fill="#FECE00" stroke="#061737"/>
<path d="M12.7986 15.847C12.7986 14.3732 13.9934 13.1785 15.4672 13.1785C16.941 13.1785 18.1358 14.3732 18.1358 15.847C18.1358 17.3209 16.941 18.5156 15.4672 18.5156C13.9934 18.5156 12.7986 17.3209 12.7986 15.847Z" fill="#E64047" stroke="#061737"/>
<path d="M21.6509 19.2089C21.6509 18.2311 22.4435 17.4385 23.4213 17.4385C24.399 17.4385 25.1917 18.2311 25.1917 19.2089C25.1917 20.1866 24.399 20.9792 23.4213 20.9792C22.4435 20.9792 21.6509 20.1866 21.6509 19.2089Z" fill="#FECE00" stroke="#061737"/>
<path d="M22.4557 18.4042C22.4557 17.4264 23.2483 16.6338 24.2261 16.6338C25.2038 16.6338 25.9965 17.4264 25.9965 18.4042C25.9965 19.3819 25.2038 20.1746 24.2261 20.1746C23.2483 20.1746 22.4557 19.3819 22.4557 18.4042Z" fill="#F9545B" stroke="#061737"/>
<path d="M18.1073 25.5308C18.1073 24.157 19.221 23.0433 20.5948 23.0433C21.9686 23.0433 23.0823 24.157 23.0823 25.5308C23.0823 26.9046 21.9686 28.0183 20.5948 28.0183C19.221 28.0183 18.1073 26.9046 18.1073 25.5308Z" fill="#FECE00" stroke="#061737"/>
<path d="M18.9121 26.3355C18.9121 24.9617 20.0258 23.848 21.3996 23.848C22.7734 23.848 23.8871 24.9617 23.8871 26.3355C23.8871 27.7093 22.7734 28.823 21.3996 28.823C20.0258 28.823 18.9121 27.7093 18.9121 26.3355Z" fill="#E64047" stroke="#061737"/>
<path d="M17.148 31.0224L17.1481 31.0226C17.1886 31.063 17.1886 31.1286 17.1481 31.169L16.4088 31.9083C16.4088 31.9083 16.4088 31.9083 16.4088 31.9084C16.3681 31.949 16.3025 31.9486 16.2625 31.9085L16.2622 31.9083C16.2218 31.8679 16.2218 31.8023 16.2622 31.7619L15.9087 31.4083L16.2622 31.7619L17.0015 31.0226C17.0015 31.0226 17.0015 31.0226 17.0015 31.0225C17.0016 31.0225 17.0016 31.0225 17.0016 31.0225C17.0221 31.0021 17.0478 30.9922 17.0748 30.9922C17.1022 30.9922 17.1278 31.0022 17.148 31.0224Z" fill="#3B484A" stroke="#061737"/>
<path d="M8.97766 22.9983L8.9776 22.9984L8.2383 23.7377C8.23828 23.7377 8.23826 23.7377 8.23824 23.7377C8.19767 23.7782 8.13207 23.7781 8.09168 23.7377C8.05121 23.6973 8.05129 23.6316 8.09163 23.5913L8.09168 23.5912L8.83105 22.8519L8.83117 22.8518C8.85133 22.8316 8.87692 22.8215 8.90429 22.8215C8.93162 22.8215 8.9573 22.8316 8.9776 22.8519C9.01808 22.8923 9.01799 22.958 8.97766 22.9983Z" fill="#3B484A" stroke="#061737"/>
<path d="M13.6092 26.3908L13.6092 26.3908C13.1397 25.9212 12.521 25.6648 11.8954 25.6648C11.8445 25.6648 11.7935 25.6666 11.7424 25.67L11.7421 25.67C11.6852 25.6738 11.642 25.723 11.6457 25.7803L13.6092 26.3908ZM13.6092 26.3908C14.1172 26.8988 14.3756 27.5809 14.3301 28.258L14.3301 28.258M13.6092 26.3908L14.3301 28.258M14.3301 28.258C14.3263 28.3142 14.2752 28.3582 14.2204 28.3545L14.2197 28.3545M14.3301 28.258L14.2197 28.3545M14.2197 28.3545C14.1626 28.3506 14.1195 28.3013 14.1233 28.2441C14.1658 27.6117 13.9175 26.9922 13.4628 26.5374L14.2197 28.3545ZM11.7548 25.8768L11.7564 25.8767L11.7564 25.8767C12.3879 25.8348 13.0077 26.0823 13.4627 26.5374L11.7548 25.8768ZM11.7548 25.8768C11.6997 25.8807 11.6497 25.8388 11.6457 25.7804L11.7548 25.8768Z" fill="#3B484A" stroke="#061737"/>
</g>
<defs>
<clipPath id="clip0_1_4727">
<rect width="40" height="40" fill="white" transform="translate(40 40) rotate(180)"/>
</clipPath>
</defs>
</svg>
