<?xml version="1.0" encoding="UTF-8"?>
<svg version="1.1" xmlns="http://www.w3.org/2000/svg" width="42" height="42">
<path d="M0 0 C3.96 0 7.92 0 12 0 C12.66 1.32 13.32 2.64 14 4 C14.61875 4.12375 15.2375 4.2475 15.875 4.375 C19.35905825 5.39972301 20.31828196 7.93687071 22 11 C22 12.32 22 13.64 22 15 C22.66 15 23.32 15 24 15 C23.505 17.475 23.505 17.475 23 20 C22.34 20 21.68 20 21 20 C20.90912109 21.50240234 20.90912109 21.50240234 20.81640625 23.03515625 C20.73191595 24.37761331 20.64727232 25.72006072 20.5625 27.0625 C20.48128906 28.37347656 20.40007813 29.68445313 20.31640625 31.03515625 C20.02356706 34.70468439 19.52059949 38.35580356 19 42 C10.42 42 1.84 42 -7 42 C-7.33 39.298125 -7.66 36.59625 -8 33.8125 C-8.10441406 32.97050049 -8.20882813 32.12850098 -8.31640625 31.26098633 C-8.76892099 27.48419412 -9.12224387 23.81248055 -9 20 C-9.99 20 -10.98 20 -12 20 C-12 18.35 -12 16.7 -12 15 C-11.34 15 -10.68 15 -10 15 C-9.9175 14.29875 -9.835 13.5975 -9.75 12.875 C-8.81369749 9.28584036 -7.29264151 6.89951721 -5 4 C-4.01 4 -3.02 4 -2 4 C-1.34 2.68 -0.68 1.36 0 0 Z " fill="#E4DEDC" transform="translate(15,0)"/>
<path d="M0 0 C3.96 0 7.92 0 12 0 C12.66 1.32 13.32 2.64 14 4 C14.61875 4.12375 15.2375 4.2475 15.875 4.375 C19.35905825 5.39972301 20.31828196 7.93687071 22 11 C22 12.32 22 13.64 22 15 C11.44 15 0.88 15 -10 15 C-9.02495009 10.12475046 -8.02356664 7.82392252 -5 4 C-4.01 4 -3.02 4 -2 4 C-1.34 2.68 -0.68 1.36 0 0 Z " fill="#FEDAA4" transform="translate(15,0)"/>
<path d="M0 0 C1.98 0 3.96 0 6 0 C6 7.59 6 15.18 6 23 C4.02 23 2.04 23 0 23 C0 15.41 0 7.82 0 0 Z " fill="#E4303D" transform="translate(18,19)"/>
<path d="M0 0 C1.98 0 3.96 0 6 0 C5.85775413 2.52108103 5.71129879 5.04180403 5.5625 7.5625 C5.50352539 8.61920898 5.50352539 8.61920898 5.44335938 9.69726562 C5.17481721 14.1798541 4.69383803 18.56293497 4 23 C2.35 23 0.7 23 -1 23 C-1.02706445 20.10410348 -1.04687029 17.20846205 -1.0625 14.3125 C-1.07087891 13.49587891 -1.07925781 12.67925781 -1.08789062 11.83789062 C-1.10442051 7.75500916 -1.03035098 3.98348293 0 0 Z " fill="#E32F3C" transform="translate(30,19)"/>
<path d="M0 0 C1.98 0 3.96 0 6 0 C7.23402862 4.77092956 7.11265112 9.42469446 7.0625 14.3125 C7.05798828 15.14845703 7.05347656 15.98441406 7.04882812 16.84570312 C7.03710548 18.89716649 7.01917203 20.94859273 7 23 C5.35 23 3.7 23 2 23 C1.66227261 20.29215006 1.32969313 17.58383004 1 14.875 C0.90460937 14.11445312 0.80921875 13.35390625 0.7109375 12.5703125 C0.20169812 8.35090048 -0.10888068 4.25995656 0 0 Z " fill="#E42937" transform="translate(6,19)"/>
<path d="M0 0 C1.32 0 2.64 0 4 0 C4 7.26 4 14.52 4 22 C2.35 22 0.7 22 -1 22 C-1.02903577 18.89585298 -1.0468107 15.79174091 -1.0625 12.6875 C-1.07087891 11.80642578 -1.07925781 10.92535156 -1.08789062 10.01757812 C-1.09111328 9.17001953 -1.09433594 8.32246094 -1.09765625 7.44921875 C-1.10289307 6.66893311 -1.10812988 5.88864746 -1.11352539 5.0847168 C-1 3 -1 3 0 0 Z " fill="#F2EBEE" transform="translate(25,20)"/>
<path d="M0 0 C1.32 0 2.64 0 4 0 C4.94137255 2.82411765 5.11725382 4.52918032 5.09765625 7.44921875 C5.09282227 8.72055664 5.09282227 8.72055664 5.08789062 10.01757812 C5.07951172 10.89865234 5.07113281 11.77972656 5.0625 12.6875 C5.05798828 13.58017578 5.05347656 14.47285156 5.04882812 15.39257812 C5.03704983 17.59511987 5.02060164 19.79752599 5 22 C3.35 22 1.7 22 0 22 C0 14.74 0 7.48 0 0 Z " fill="#F2EBEE" transform="translate(13,20)"/>
<path d="M0 0 C0 0.66 0 1.32 0 2 C0.99 2.33 1.98 2.66 3 3 C3.33 4.32 3.66 5.64 4 7 C-1.28 7 -6.56 7 -12 7 C-11.34 5.35 -10.68 3.7 -10 2 C-9.34 2 -8.68 2 -8 2 C-8 1.34 -8 0.68 -8 0 C-4.71303767 -0.79953138 -3.28976808 -1.09658936 0 0 Z " fill="#FEC061" transform="translate(25,8)"/>
<path d="M0 0 C0.99 0 1.98 0 3 0 C2.85758352 2.35441716 2.71115192 4.70847484 2.5625 7.0625 C2.48128906 8.37347656 2.40007813 9.68445313 2.31640625 11.03515625 C2.02101751 14.73663238 1.56734612 18.33370448 1 22 C0.01 22 -0.98 22 -2 22 C-1.85758352 19.64558284 -1.71115192 17.29152516 -1.5625 14.9375 C-1.48128906 13.62652344 -1.40007813 12.31554687 -1.31640625 10.96484375 C-1.02101751 7.26336762 -0.56734612 3.66629552 0 0 Z " fill="#D4192F" transform="translate(33,20)"/>
<path d="M0 0 C1.98 0.99 1.98 0.99 4 2 C4 2.66 4 3.32 4 4 C4.86625 4.061875 4.86625 4.061875 5.75 4.125 C9.21236459 5.47147512 10.25442291 7.82055601 12 11 C12 12.32 12 13.64 12 15 C11.34 15 10.68 15 10 15 C9.67 14.01 9.34 13.02 9 12 C6.99983534 10.79117904 6.99983534 10.79117904 5 10 C5 9.34 5 8.68 5 8 C4.34 7.67 3.68 7.34 3 7 C3.33 6.67 3.66 6.34 4 6 C3.34 5.67 2.68 5.34 2 5 C1.27840576 3.35636866 0.60648579 1.68949614 0 0 Z " fill="#FECD84" transform="translate(25,0)"/>
</svg>
