<svg width="16" height="16" viewBox="0 0 16 16" fill="none" xmlns="http://www.w3.org/2000/svg">
<g clip-path="url(#clip0_1_4680)">
<path d="M11.6718 5.11926C11.3384 4.75523 10.82 4.26389 10.5995 5.37333C10.5245 5.75055 10.3493 6.04133 10.1991 6.27545C10.0373 5.45633 9.55032 4.60848 9.09151 4.03683C8.91982 3.82295 8.31064 2.97273 8.1936 1.55036C8.17614 1.33808 7.92398 1.23839 7.76626 1.38158C6.25901 2.74983 5.4317 4.63164 5.40098 6.75017C5.40098 6.75017 4.77335 6.22114 4.43239 5.23695C4.34057 4.97192 3.98526 4.92136 3.8311 5.1557C3.80151 5.2007 3.77407 5.24576 3.74932 5.28951C2.58642 7.34576 2.02701 9.8428 2.54417 12.1659C3.40885 16.0565 9.12867 17.1441 12.1568 14.6989C15.1194 12.3065 14.1777 7.8537 11.6718 5.11926Z" fill="#ED694A"/>
<path d="M3.34913 12.4097C2.83798 10.0617 3.37904 7.54038 4.51463 5.45194C4.48591 5.38266 4.45829 5.311 4.43248 5.2365C4.34066 4.97147 3.98535 4.92091 3.8312 5.15525C3.8016 5.20025 3.7742 5.24532 3.74945 5.28907C2.58654 7.34532 2.02713 9.84235 2.54429 12.1655C2.9387 13.94 4.34332 15.1311 6.04179 15.6701C4.71679 15.0283 3.67916 13.928 3.34913 12.4097Z" fill="#D8553A"/>
<path d="M6.20997 6.71089C6.27275 4.78817 6.96818 3.06411 8.21287 1.73967C8.20431 1.66673 8.19796 1.60151 8.19387 1.55201C8.17602 1.33792 7.93309 1.23055 7.77606 1.37248C6.32028 2.68867 5.43297 4.55145 5.40112 6.74983L5.67359 6.96142C5.80778 7.06564 5.98959 7.06111 6.11775 6.96564C6.19422 6.90083 6.20518 6.80301 6.20997 6.71089Z" fill="#D8553A"/>
<path d="M10.7576 7.96316C10.5114 7.69429 10.1285 7.33135 9.96559 8.15082C9.91022 8.42941 9.78075 8.64422 9.6699 8.81716C9.55037 8.21213 9.19068 7.58588 8.85181 7.16366C8.725 7.00569 8.27506 6.37772 8.18859 5.32707C8.17568 5.17025 7.98947 5.09666 7.87297 5.20241C6.75968 6.213 6.14859 7.603 6.12593 9.16775C6.12593 9.16775 5.66234 8.777 5.41053 8.05007C5.34272 7.85432 5.08025 7.81697 4.9664 7.99007C4.94456 8.02329 4.92428 8.0566 4.906 8.08891C4.04703 9.60769 3.63384 11.452 4.01581 13.168C4.6545 16.0416 8.87925 16.845 11.1159 15.0388C13.3041 13.2718 12.6085 9.98291 10.7576 7.96316Z" fill="#F4A32C"/>
<path d="M4.81228 13.3934C4.47409 11.716 4.82438 9.91619 5.56703 8.41744C5.51044 8.30662 5.45681 8.18412 5.41038 8.05012C5.34256 7.85437 5.08009 7.817 4.96625 7.99009C4.94441 8.02331 4.92413 8.05662 4.90584 8.08897C4.04691 9.60775 3.63375 11.4521 4.01566 13.168C4.31272 14.5045 5.38556 15.3929 6.67319 15.7795C5.75834 15.3207 5.03803 14.5146 4.81228 13.3934Z" fill="#E89528"/>
<path d="M9.9229 10.5597C9.75621 10.3777 9.49696 10.1319 9.38671 10.6867C9.34924 10.8753 9.26158 11.0207 9.18652 11.1377C9.10558 10.7282 8.86214 10.3042 8.63271 10.0184C8.54689 9.9115 8.2423 9.4864 8.18374 8.77518C8.17499 8.66903 8.04896 8.61918 7.97008 8.69081C7.21646 9.37493 6.8028 10.3159 6.78746 11.3751C6.78746 11.3751 6.47361 11.1106 6.30317 10.6185C6.25727 10.486 6.07961 10.4607 6.00255 10.5779C5.98774 10.6003 5.97405 10.6229 5.96164 10.6448C5.3802 11.6729 5.10048 12.9214 5.35905 14.083C5.79139 16.0283 8.6513 16.5721 10.1653 15.3495C10.6838 14.9308 11.0053 14.3408 11.0705 13.6882C11.1689 12.6998 10.7885 11.5042 9.9229 10.5597Z" fill="#F4D44E"/>
<path d="M9.14836 12.9691C9.05549 12.8677 8.91108 12.7308 8.84965 13.0398C8.82877 13.1449 8.77996 13.2259 8.73811 13.2911C8.69302 13.063 8.55739 12.8268 8.42958 12.6675C8.38177 12.608 8.21205 12.3711 8.17943 11.9749C8.17455 11.9157 8.1043 11.888 8.06039 11.9279C7.64055 12.309 7.41005 12.8332 7.40152 13.4234C7.40152 13.4234 7.22668 13.276 7.13171 13.0018C7.10611 12.928 7.00714 12.9139 6.96424 12.9792C6.95599 12.9917 6.94836 13.0043 6.94149 13.0165C6.61755 13.5893 6.46171 14.2849 6.60577 14.932C6.93383 16.408 9.62283 16.3632 9.78777 14.712C9.84252 14.1614 9.63058 13.4953 9.14836 12.9691Z" fill="#EAE9E8"/>
<path d="M7.23011 15.2249C7.08605 14.646 7.24189 14.0238 7.56583 13.5114C7.57271 13.5005 7.58036 13.4893 7.58858 13.478C7.63152 13.4196 7.73049 13.4322 7.75605 13.4983C7.85102 13.7435 8.02586 13.8754 8.02586 13.8754C8.03289 13.4416 8.19002 13.0479 8.47861 12.732C8.41408 12.6427 8.21664 12.4272 8.17942 11.9749C8.17455 11.9157 8.1043 11.888 8.06039 11.9279C7.64055 12.309 7.41005 12.8332 7.40152 13.4234C7.40152 13.4234 7.22667 13.276 7.13171 13.0019C7.10614 12.928 7.00714 12.9139 6.96424 12.9792C6.95599 12.9918 6.94836 13.0043 6.94149 13.0165C6.61755 13.5893 6.46171 14.2849 6.60577 14.932C6.73908 15.5319 7.28677 15.8924 7.89227 15.9794C7.56564 15.819 7.31461 15.565 7.23011 15.2249Z" fill="#F7E7A1"/>
<path d="M5.76886 2.12641C6.44464 1.57675 6.44314 0.548406 5.76886 0C5.09308 0.549625 5.09455 1.578 5.76886 2.12641Z" fill="#D8553A"/>
<path d="M13.8686 6.53803C14.5443 5.98837 14.5428 4.96003 13.8686 4.41162C13.5597 4.66281 13.1943 5.98962 13.8686 6.53803Z" fill="#D8553A"/>
<path d="M1.89958 6.95636C2.38661 6.5602 2.38555 5.81911 1.89958 5.42383C1.67699 5.60486 1.41361 6.56111 1.89958 6.95636Z" fill="#D8553A"/>
<path d="M10.3347 3.659C10.8217 3.26284 10.8207 2.52175 10.3347 2.12646C9.84768 2.52259 9.84877 3.26375 10.3347 3.659Z" fill="#D8553A"/>
<path d="M6.74726 8.91644C6.8591 7.59606 7.36332 6.42203 8.20995 5.527C8.20139 5.46213 8.19417 5.39554 8.18854 5.32707C8.17564 5.17025 7.98942 5.09666 7.87292 5.20241C6.99073 6.00322 6.42454 7.04247 6.21598 8.21794L6.21567 8.21784C6.2002 8.30503 6.18101 8.43203 6.16889 8.53181C6.16892 8.53191 6.16895 8.53197 6.16901 8.53206C6.14367 8.74031 6.12898 8.95231 6.12585 9.16778C6.14942 9.17238 6.68279 9.44653 6.74726 8.91644Z" fill="#E89528"/>
<path d="M6.13839 14.359C5.90855 13.2738 6.1043 12.1166 6.55905 11.114C6.47095 10.9904 6.37455 10.8245 6.3032 10.6185C6.25727 10.486 6.07964 10.4607 6.00255 10.5779C5.98777 10.6003 5.97402 10.6229 5.96164 10.6448C5.3802 11.6729 5.10048 12.9214 5.35905 14.083C5.56155 14.994 6.29645 15.5976 7.17617 15.8564C6.66411 15.5165 6.27676 15.0133 6.13839 14.359Z" fill="#E8C842"/>
<path d="M7.61719 10.9009C7.69338 10.3564 7.9161 9.7564 8.2667 9.25481C8.22851 9.11318 8.19848 8.95315 8.18382 8.77518C8.17507 8.66903 8.04901 8.61918 7.97016 8.69081C7.5006 9.11709 7.16357 9.64328 6.9721 10.2354L6.9716 10.2353C6.94147 10.3283 6.89888 10.4825 6.87307 10.6041C6.87329 10.6041 6.8735 10.6041 6.87372 10.604C6.82085 10.8522 6.79144 11.1098 6.7876 11.3751C7.20922 11.4277 7.55801 11.3233 7.61719 10.9009Z" fill="#E8C842"/>
</g>
<defs>
<clipPath id="clip0_1_4680">
<rect width="16" height="16" fill="white"/>
</clipPath>
</defs>
</svg>
