<svg width="22" height="20" viewBox="0 0 22 20" fill="none" xmlns="http://www.w3.org/2000/svg">
<path fill-rule="evenodd" clip-rule="evenodd" d="M1.40482 9.82952C0.173864 6.00569 1.81152 1.99738 5.48311 0.815291C7.2404 0.250031 9.14194 0.45344 10.733 1.35623L10.9964 1.51429L11.2645 1.35535C12.773 0.501301 14.5624 0.273087 16.2463 0.736231L16.512 0.81535C20.1847 1.9978 21.8291 6.00801 20.5937 9.84515C19.9743 11.6301 18.9584 13.2485 17.6174 14.5824C15.7927 16.3545 13.7812 17.9194 11.6218 19.2473L11.3926 19.3897C11.1598 19.5344 10.8656 19.5369 10.6304 19.3961L10.3849 19.2491C8.22254 17.9194 6.21101 16.3545 4.38004 14.5762C3.04534 13.2485 2.02947 11.6301 1.40482 9.82952ZM10.5714 2.99538L10.3746 2.85427C9.07056 1.96289 7.43331 1.72339 5.93153 2.20646C3.08746 3.12212 1.79808 6.27801 2.79207 9.36635C3.33877 10.9417 4.23505 12.3696 5.40582 13.5343C7.15375 15.2319 9.08049 16.7308 11.144 17.9998L11.0013 17.9098L11.4691 17.6156C13.1026 16.561 14.641 15.3642 16.0636 14.0421L16.5916 13.5405C17.7687 12.3696 18.665 10.9417 19.2064 9.38199C20.2047 6.28096 18.9097 3.12284 16.0641 2.20669C14.4873 1.70082 12.766 1.99057 11.436 2.98625C11.1806 3.17742 10.8307 3.18111 10.5714 2.99538Z" fill="#061737"/>
<path d="M5.48311 0.815291L5.33 0.339309L5.32988 0.33935L5.48311 0.815291ZM1.40482 9.82952L0.928753 9.98277L0.932438 9.99339L1.40482 9.82952ZM10.733 1.35623L10.9903 0.927375L10.9797 0.921364L10.733 1.35623ZM10.9964 1.51429L10.7391 1.94303L10.9948 2.09647L11.2514 1.9444L10.9964 1.51429ZM11.2645 1.35535L11.0181 0.920157L11.0095 0.925241L11.2645 1.35535ZM16.2463 0.736231L16.389 0.256922L16.3789 0.254134L16.2463 0.736231ZM16.512 0.81535L16.6652 0.339293L16.6547 0.336146L16.512 0.81535ZM20.5937 9.84515L21.0662 10.0091L21.0696 9.99839L20.5937 9.84515ZM17.6174 14.5824L17.9658 14.9411L17.97 14.9369L17.6174 14.5824ZM11.6218 19.2473L11.3599 18.8213L11.3579 18.8226L11.6218 19.2473ZM11.3926 19.3897L11.6565 19.8144L11.6565 19.8144L11.3926 19.3897ZM10.6304 19.3961L10.3736 19.8251L10.3737 19.8252L10.6304 19.3961ZM10.3849 19.2491L10.1229 19.675L10.128 19.6781L10.3849 19.2491ZM4.38004 14.5762L4.02738 14.9307L4.03169 14.9349L4.38004 14.5762ZM10.3746 2.85427L10.6661 2.44788L10.6568 2.44149L10.3746 2.85427ZM10.5714 2.99538L10.28 3.40167L10.2802 3.40188L10.5714 2.99538ZM5.93153 2.20646L5.77843 1.73047L5.7783 1.73052L5.93153 2.20646ZM2.79207 9.36635L2.31599 9.51958L2.31971 9.53027L2.79207 9.36635ZM5.40582 13.5343L5.05315 13.8888L5.05747 13.893L5.40582 13.5343ZM11.144 17.9998L10.8821 18.4258L11.4107 17.5769L11.144 17.9998ZM11.0013 17.9098L10.7351 17.4866L10.0628 17.9094L10.7346 18.3328L11.0013 17.9098ZM11.4691 17.6156L11.7353 18.0389L11.7403 18.0357L11.4691 17.6156ZM16.0636 14.0421L16.404 14.4084L16.408 14.4046L16.0636 14.0421ZM16.5916 13.5405L16.9361 13.9031L16.9443 13.895L16.5916 13.5405ZM19.2064 9.38199L19.6789 9.54601L19.6824 9.5352L19.2064 9.38199ZM16.0641 2.20669L16.2173 1.73075L16.2168 1.73059L16.0641 2.20669ZM11.436 2.98625L11.1363 2.58599V2.58599L11.436 2.98625ZM5.32988 0.33935C1.34296 1.62295 -0.368753 5.9518 0.928873 9.98273L1.88077 9.6763C0.716482 6.05958 2.28008 2.3718 5.63634 1.29123L5.32988 0.33935ZM10.9797 0.921364C9.26782 -0.0500142 7.22133 -0.269066 5.33 0.339309L5.63621 1.29127C7.25946 0.769129 9.01605 0.956894 10.4862 1.79111L10.9797 0.921364ZM11.2537 1.08556L10.9903 0.927503L10.4757 1.78497L10.7391 1.94303L11.2537 1.08556ZM11.0095 0.925241L10.7414 1.08419L11.2514 1.9444L11.5195 1.78545L11.0095 0.925241ZM16.3789 0.254134C14.5667 -0.244305 12.6411 0.00141242 11.0182 0.920244L11.5109 1.79045C12.9049 1.00119 14.5581 0.790479 16.1137 1.21833L16.3789 0.254134ZM16.6547 0.336146L16.389 0.257028L16.1036 1.21543L16.3693 1.29455L16.6547 0.336146ZM21.0696 9.99839C22.3718 5.95396 20.6531 1.62333 16.6652 0.339408L16.3587 1.29129C19.7163 2.37226 21.2864 6.06206 20.1177 9.69192L21.0696 9.99839ZM17.97 14.9369C19.365 13.5493 20.4217 11.8657 21.066 10.0091L20.1213 9.68123C19.5268 11.3945 18.5518 12.9477 17.2648 14.2279L17.97 14.9369ZM11.8837 19.6732C14.0744 18.3261 16.1149 16.7386 17.9658 14.9411L17.2691 14.2237C15.4706 15.9704 13.488 17.5127 11.3599 18.8213L11.8837 19.6732ZM11.6565 19.8144L11.8858 19.6719L11.3579 18.8226L11.1286 18.9651L11.6565 19.8144ZM10.3737 19.8252C10.7695 20.0621 11.2647 20.0579 11.6565 19.8144L11.1286 18.9651C11.0549 19.0109 10.9617 19.0117 10.8872 18.9671L10.3737 19.8252ZM10.128 19.6781L10.3736 19.8251L10.8873 18.9672L10.6417 18.8201L10.128 19.6781ZM4.03169 14.9349C5.88883 16.7386 7.92932 18.3261 10.123 19.675L10.6468 18.8232C8.51575 17.5127 6.5332 15.9704 4.72839 14.2176L4.03169 14.9349ZM0.932438 9.99339C1.58179 11.8652 2.63839 13.5489 4.02741 14.9307L4.73267 14.2218C3.4523 12.948 2.47714 11.395 1.8772 9.66564L0.932438 9.99339ZM10.0832 3.26056L10.28 3.40167L10.8628 2.58909L10.6661 2.44798L10.0832 3.26056ZM6.08464 2.68244C7.43885 2.24684 8.9155 2.46255 10.0925 3.26706L10.6568 2.44149C9.22562 1.46324 7.42777 1.19994 5.77843 1.73047L6.08464 2.68244ZM3.26803 9.21316C2.3382 6.32419 3.5628 3.49436 6.08477 2.6824L5.7783 1.73052C2.61212 2.74988 1.25795 6.23182 2.31612 9.51954L3.26803 9.21316ZM5.75846 13.1799C4.64194 12.0691 3.7864 10.7065 3.26444 9.20243L2.31971 9.53027C2.89114 11.1769 3.82817 12.6701 5.05317 13.8888L5.75846 13.1799ZM11.406 17.5739C9.37371 16.3242 7.47593 14.8478 5.75416 13.1757L5.05747 13.893C6.83156 15.616 8.78727 17.1375 10.8821 18.4258L11.406 17.5739ZM10.7346 18.3328L10.8774 18.4228L11.4107 17.5769L11.2679 17.4869L10.7346 18.3328ZM11.2029 17.1923L10.7351 17.4866L11.2675 18.3331L11.7353 18.0389L11.2029 17.1923ZM15.7233 13.6758C14.3221 14.978 12.8067 16.1568 11.1979 17.1955L11.7403 18.0357C13.3984 16.9651 14.96 15.7503 16.404 14.4084L15.7233 13.6758ZM16.2473 13.178L15.7193 13.6796L16.408 14.4046L16.936 13.903L16.2473 13.178ZM18.7341 9.21801C18.2175 10.706 17.3622 12.0687 16.239 13.186L16.9443 13.895C18.1751 12.6705 19.1124 11.1775 19.6788 9.54596L18.7341 9.21801ZM15.9109 2.68263C18.4344 3.4951 19.6645 6.32722 18.7305 9.22877L19.6824 9.5352C20.7449 6.2347 19.385 2.75058 16.2173 1.73075L15.9109 2.68263ZM11.7356 3.38652C12.9365 2.48753 14.4892 2.22656 15.9114 2.68279L16.2168 1.73059C14.4853 1.17509 12.5955 1.4936 11.1363 2.58599L11.7356 3.38652ZM10.2802 3.40188C10.7168 3.71454 11.3058 3.70833 11.7356 3.38652L11.1363 2.58599C11.0555 2.64651 10.9446 2.64769 10.8625 2.58888L10.2802 3.40188Z" fill="#061737"/>
</svg>
