<svg width="16" height="18" viewBox="0 0 16 18" fill="none" xmlns="http://www.w3.org/2000/svg">
<path fill-rule="evenodd" clip-rule="evenodd" d="M8.02402 0.66679C4.18316 0.653741 1.04593 3.70954 0.920544 7.53454L0.916687 7.77196C0.980528 9.64681 1.61841 11.434 2.74192 12.9064L3.00579 13.2508C4.07819 14.6143 5.35261 15.8112 6.78358 16.7977L7.12812 17.0296L7.17839 17.0691C7.66885 17.4215 8.33107 17.4215 8.82153 17.0691L8.86337 17.0347C9.99881 16.2983 11.0459 15.4331 11.9837 14.4562C13.8905 12.4377 15.0398 10.1761 15.0832 7.87923L15.0833 7.79395C15.0963 3.94335 12.0499 0.796473 8.23665 0.670657L8.02402 0.66679ZM8.01973 1.93129C11.1685 1.94206 13.725 4.45792 13.8199 7.591L13.8226 7.86725C13.7862 9.79294 12.7779 11.7771 11.0722 13.5827C10.2025 14.4886 9.2273 15.2939 8.16965 15.9788L8.09916 16.0318C8.0422 16.0812 7.95772 16.0812 7.90075 16.0318L7.83224 15.9801C6.25666 14.9514 4.87383 13.6526 3.74699 12.1432C2.83934 10.9536 2.30148 9.53123 2.19322 8.04748L2.17732 7.74996C2.18801 4.59358 4.69612 2.02922 7.81956 1.934L8.01973 1.93129ZM7.99996 5.16782C6.50963 5.16782 5.30148 6.3797 5.30148 7.87463C5.30148 9.36955 6.50963 10.5814 7.99996 10.5814C9.49028 10.5814 10.6984 9.36955 10.6984 7.87463C10.6984 6.3797 9.49028 5.16782 7.99996 5.16782ZM7.99996 6.43235C8.79406 6.43235 9.4378 7.07808 9.4378 7.87463C9.4378 8.67118 8.79406 9.31692 7.99996 9.31692C7.20585 9.31692 6.56211 8.67118 6.56211 7.87463C6.56211 7.07808 7.20585 6.43235 7.99996 6.43235Z" fill="#FECE00"/>
<path d="M0.920544 7.53454L0.420744 7.51816L0.420609 7.52642L0.920544 7.53454ZM8.02402 0.66679L8.03311 0.166818L8.02572 0.166793L8.02402 0.66679ZM0.916687 7.77196L0.416753 7.76384L0.416549 7.77641L0.416977 7.78898L0.916687 7.77196ZM2.74192 12.9064L2.34442 13.2097L2.34505 13.2106L2.74192 12.9064ZM3.00579 13.2508L2.60888 13.5549L2.61277 13.5599L3.00579 13.2508ZM6.78358 16.7977L6.49977 17.2094L6.50436 17.2124L6.78358 16.7977ZM7.12812 17.0296L7.43689 16.6363L7.42251 16.625L7.40733 16.6148L7.12812 17.0296ZM7.17839 17.0691L6.86962 17.4623L6.87799 17.4689L6.88664 17.4751L7.17839 17.0691ZM8.82153 17.0691L9.11328 17.4751L9.12645 17.4657L9.13897 17.4554L8.82153 17.0691ZM8.86337 17.0347L8.59131 16.6152L8.56769 16.6305L8.54593 16.6484L8.86337 17.0347ZM11.9837 14.4562L12.3444 14.8024L12.3472 14.7995L11.9837 14.4562ZM15.0832 7.87923L15.5831 7.88868L15.5832 7.8799L15.0832 7.87923ZM15.0833 7.79395L14.5833 7.79226L14.5833 7.79329L15.0833 7.79395ZM8.23665 0.670657L8.25314 0.170874L8.24575 0.170739L8.23665 0.670657ZM13.8199 7.591L14.32 7.58612L14.3197 7.57586L13.8199 7.591ZM8.01973 1.93129L8.02144 1.43122L8.01297 1.43134L8.01973 1.93129ZM13.8226 7.86725L14.3226 7.87672L14.3227 7.86955L14.3226 7.86237L13.8226 7.86725ZM11.0722 13.5827L11.4329 13.929L11.4357 13.926L11.0722 13.5827ZM8.16965 15.9788L7.89788 15.5591L7.88318 15.5686L7.86918 15.5791L8.16965 15.9788ZM8.09916 16.0318L7.79869 15.6321L7.7847 15.6427L7.77148 15.6541L8.09916 16.0318ZM7.90075 16.0318L8.22844 15.6541L8.21557 15.643L8.20197 15.6327L7.90075 16.0318ZM7.83224 15.9801L8.13346 15.581L8.11986 15.5707L8.10559 15.5614L7.83224 15.9801ZM3.74699 12.1432L4.14768 11.844L4.1445 11.8399L3.74699 12.1432ZM2.19322 8.04748L1.69384 8.07418L1.69455 8.08386L2.19322 8.04748ZM2.17732 7.74996L1.67732 7.74827L1.67727 7.76247L1.67803 7.77665L2.17732 7.74996ZM7.81956 1.934L7.8128 1.43397L7.80433 1.43423L7.81956 1.934ZM1.42028 7.55093C1.53688 3.99401 4.45407 1.15466 8.02232 1.16679L8.02572 0.166793C3.91225 0.152818 0.554991 3.42507 0.420812 7.51816L1.42028 7.55093ZM1.41662 7.78008L1.42048 7.54266L0.420609 7.52642L0.416753 7.76384L1.41662 7.78008ZM3.13942 12.6031C2.07931 11.2138 1.47673 9.52679 1.4164 7.75494L0.416977 7.78898C0.484325 9.76683 1.15752 11.6542 2.34442 13.2097L3.13942 12.6031ZM3.40266 12.9466L3.1388 12.6023L2.34505 13.2106L2.60891 13.5549L3.40266 12.9466ZM7.06737 16.386C5.67773 15.428 4.44014 14.2657 3.3988 12.9417L2.61277 13.5599C3.71624 14.9629 5.02749 16.1944 6.49979 17.2093L7.06737 16.386ZM7.40733 16.6148L7.0628 16.3829L6.50436 17.2124L6.8489 17.4444L7.40733 16.6148ZM7.48716 16.6758L7.43689 16.6363L6.81934 17.4229L6.86962 17.4623L7.48716 16.6758ZM8.52978 16.663C8.21365 16.8902 7.78627 16.8902 7.47014 16.663L6.88664 17.4751C7.55143 17.9528 8.44849 17.9528 9.11328 17.4751L8.52978 16.663ZM8.54593 16.6484L8.50409 16.6828L9.13897 17.4554L9.18081 17.421L8.54593 16.6484ZM11.6231 14.1099C10.7118 15.0591 9.69447 15.8998 8.59131 16.6152L9.13543 17.4542C10.3032 16.6969 11.3799 15.8071 12.3444 14.8024L11.6231 14.1099ZM14.5832 7.86979C14.543 10.0026 13.4734 12.1512 11.6203 14.1128L12.3472 14.7995C14.3076 12.7243 15.5366 10.3496 15.5831 7.88867L14.5832 7.86979ZM14.5833 7.79329L14.5832 7.87857L15.5832 7.8799L15.5833 7.79462L14.5833 7.79329ZM8.22016 1.17038C11.7627 1.28727 14.5954 4.21155 14.5833 7.79226L15.5833 7.79564C15.5972 3.67515 12.3371 0.305677 8.25314 0.170929L8.22016 1.17038ZM8.01493 1.16671L8.22756 1.17057L8.24575 0.170739L8.03311 0.166872L8.01493 1.16671ZM14.3197 7.57586C14.2167 4.17562 11.4421 1.44299 8.02144 1.4313L8.01803 2.43129C10.8949 2.44113 13.2333 4.74022 13.3202 7.60614L14.3197 7.57586ZM14.3226 7.86237L14.3199 7.58612L13.32 7.59587L13.3227 7.87213L14.3226 7.86237ZM11.4357 13.926C13.1916 12.0673 14.2829 9.97002 14.3226 7.87672L13.3227 7.85778C13.2894 9.61585 12.3642 11.4869 10.7087 13.2393L11.4357 13.926ZM8.44143 16.3985C9.53141 15.6926 10.5364 14.8627 11.4329 13.929L10.7115 13.2364C9.86852 14.1145 8.9232 14.8951 7.89788 15.5591L8.44143 16.3985ZM8.39963 16.4314L8.47012 16.3784L7.86918 15.5791L7.79869 15.6321L8.39963 16.4314ZM7.57307 16.4094C7.81804 16.622 8.18188 16.622 8.42684 16.4094L7.77148 15.6541C7.90252 15.5404 8.09739 15.5404 8.22844 15.6541L7.57307 16.4094ZM7.53103 16.3792L7.59954 16.4309L8.20197 15.6327L8.13346 15.581L7.53103 16.3792ZM3.34632 12.4423C4.50822 13.9987 5.93414 15.3379 7.5589 16.3987L8.10559 15.5614C6.57919 14.5648 5.23944 13.3065 4.14766 11.8441L3.34632 12.4423ZM1.69455 8.08386C1.80988 9.66454 2.3829 11.1796 3.34948 12.4465L4.1445 11.8399C3.29578 10.7275 2.79308 9.39792 2.6919 8.01109L1.69455 8.08386ZM1.67803 7.77665L1.69394 8.07417L2.69251 8.02079L2.6766 7.72327L1.67803 7.77665ZM7.80433 1.43423C4.41112 1.53768 1.68893 4.32268 1.67732 7.74827L2.67731 7.75165C2.6871 4.86449 4.98112 2.52077 7.8348 2.43377L7.80433 1.43423ZM8.01297 1.43134L7.8128 1.43405L7.82632 2.43395L8.02649 2.43125L8.01297 1.43134ZM5.80148 7.87463C5.80148 6.65439 6.78722 5.66782 7.99996 5.66782V4.66782C6.23203 4.66782 4.80148 6.10501 4.80148 7.87463H5.80148ZM7.99996 10.0814C6.78722 10.0814 5.80148 9.09486 5.80148 7.87463H4.80148C4.80148 9.64424 6.23203 11.0814 7.99996 11.0814V10.0814ZM10.1984 7.87463C10.1984 9.09486 9.21269 10.0814 7.99996 10.0814V11.0814C9.76788 11.0814 11.1984 9.64424 11.1984 7.87463H10.1984ZM7.99996 5.66782C9.21269 5.66782 10.1984 6.65439 10.1984 7.87463H11.1984C11.1984 6.10501 9.76788 4.66782 7.99996 4.66782V5.66782ZM9.9378 7.87463C9.9378 6.80339 9.07165 5.93235 7.99996 5.93235V6.93235C8.51646 6.93235 8.9378 7.35277 8.9378 7.87463H9.9378ZM7.99996 9.81692C9.07165 9.81692 9.9378 8.94587 9.9378 7.87463H8.9378C8.9378 8.39649 8.51646 8.81692 7.99996 8.81692V9.81692ZM6.06211 7.87463C6.06211 8.94587 6.92826 9.81692 7.99996 9.81692V8.81692C7.48345 8.81692 7.06211 8.3965 7.06211 7.87463H6.06211ZM7.99996 5.93235C6.92826 5.93235 6.06211 6.80339 6.06211 7.87463H7.06211C7.06211 7.35277 7.48345 6.93235 7.99996 6.93235V5.93235Z" fill="#FECE00"/>
</svg>
