<svg width="16" height="16" viewBox="0 0 16 16" fill="none" xmlns="http://www.w3.org/2000/svg">
<path d="M3.87221 4.73449L3.8583 4.72224L3.84352 4.71106C3.43023 4.39826 2.84302 4.43371 2.47029 4.81391C2.0654 5.22691 2.0654 5.89249 2.47029 6.3055L7.25493 11.1861L7.26777 11.1992L7.28153 11.2113L7.34307 11.2655L7.35698 11.2778L7.37176 11.2889C7.78505 11.6017 8.37227 11.5663 8.74499 11.1861L13.5296 6.3055L13.5424 6.29244L13.5542 6.27847L13.6074 6.2157L13.6192 6.20167L13.6301 6.18681C13.9304 5.77397 13.8986 5.19025 13.5296 4.81391L13.5168 4.80081L13.503 4.78869L13.4415 4.7345L13.4276 4.72224L13.4128 4.71106C12.9995 4.39826 12.4123 4.43371 12.0396 4.81391L12.0396 4.81391L7.99996 8.9347L3.96036 4.81391L3.94752 4.80081L3.93375 4.78869L3.87221 4.73449Z" fill="#FECE00" stroke="#FECE00"/>
</svg>
