<svg width="8" height="10" viewBox="0 0 8 10" fill="none" xmlns="http://www.w3.org/2000/svg">
<path d="M1.45706 8.0132L1.44481 8.02711L1.43362 8.04189C1.16147 8.40148 1.1924 8.91249 1.52292 9.23651C1.88128 9.58783 2.45827 9.58783 2.81663 9.23651L6.47708 5.64804L6.49017 5.6352L6.5023 5.62143L6.54294 5.57528L6.55519 5.56136L6.56638 5.54658C6.83853 5.187 6.8076 4.67599 6.47708 4.35196L2.81663 0.763486L2.80357 0.750683L2.78961 0.738869L2.74253 0.699023L2.7285 0.687152L2.71364 0.676342C2.35558 0.415891 1.84959 0.44324 1.52292 0.763486L1.50983 0.776326L1.4977 0.790092L1.45706 0.836247L1.44481 0.850159L1.43362 0.864939C1.16147 1.22452 1.1924 1.73553 1.52292 2.05956L1.52293 2.05957L4.52246 5L1.52293 7.94043L1.50983 7.95328L1.4977 7.96705L1.45706 8.0132Z" fill="#061737" stroke="#061737"/>
</svg>
