<svg width="9" height="13" viewBox="0 0 9 13" fill="none" xmlns="http://www.w3.org/2000/svg">
<path d="M4.864 12.224C3.75467 12.224 2.82133 11.9787 2.064 11.488C1.30667 10.9867 0.773333 10.3093 0.464 9.456L2.352 8.352C2.78933 9.49333 3.648 10.064 4.928 10.064C5.54667 10.064 6 9.952 6.288 9.728C6.576 9.504 6.72 9.22133 6.72 8.88C6.72 8.48533 6.544 8.18133 6.192 7.968C5.84 7.744 5.21067 7.504 4.304 7.248C3.80267 7.09867 3.376 6.94933 3.024 6.8C2.68267 6.65067 2.336 6.45333 1.984 6.208C1.64267 5.952 1.38133 5.632 1.2 5.248C1.01867 4.864 0.928 4.416 0.928 3.904C0.928 2.89067 1.28533 2.08533 2 1.488C2.72533 0.879999 3.59467 0.575999 4.608 0.575999C5.51467 0.575999 6.30933 0.799999 6.992 1.248C7.68533 1.68533 8.224 2.29867 8.608 3.088L6.752 4.16C6.304 3.2 5.58933 2.72 4.608 2.72C4.14933 2.72 3.78667 2.82667 3.52 3.04C3.264 3.24267 3.136 3.50933 3.136 3.84C3.136 4.192 3.28 4.48 3.568 4.704C3.86667 4.91733 4.432 5.152 5.264 5.408C5.60533 5.51467 5.86133 5.6 6.032 5.664C6.21333 5.71733 6.45333 5.808 6.752 5.936C7.06133 6.05333 7.296 6.16533 7.456 6.272C7.62667 6.37867 7.81867 6.52267 8.032 6.704C8.24533 6.88533 8.40533 7.072 8.512 7.264C8.62933 7.456 8.72533 7.69067 8.8 7.968C8.88533 8.23467 8.928 8.528 8.928 8.848C8.928 9.88267 8.54933 10.704 7.792 11.312C7.04533 11.92 6.06933 12.224 4.864 12.224Z" fill="#061737"/>
</svg>
