<svg width="14" height="14" viewBox="0 0 14 14" fill="none" xmlns="http://www.w3.org/2000/svg">
<path d="M3.50659 13.3332C3.13325 13.3338 2.78992 13.1285 2.61392 12.7998C2.50925 12.6065 2.47125 12.3838 2.50659 12.1665L3.10059 8.83984C3.10059 8.8325 3.09859 8.82517 3.09325 8.81984L0.626585 6.4465C0.439252 6.26384 0.333919 6.01317 0.333252 5.75117C0.333252 5.47517 0.443919 5.2105 0.640585 5.01784C0.795919 4.87784 0.987919 4.78584 1.19392 4.75117L4.56059 4.2645C4.57392 4.2645 4.58792 4.2585 4.58792 4.2445L6.09325 1.2265C6.21192 0.987171 6.42059 0.805837 6.67325 0.719837C6.77859 0.683837 6.88925 0.666504 6.99992 0.666504C7.38192 0.668504 7.72992 0.884504 7.89992 1.2265L9.40725 4.25317C9.41392 4.25984 9.42059 4.2665 9.42659 4.2665L12.8013 4.75317C13.0653 4.7905 13.3046 4.92917 13.4679 5.13984C13.7686 5.5425 13.7226 6.1045 13.3613 6.45317L10.9146 8.81984C10.9146 8.81984 10.9099 8.8245 10.9099 8.8265C10.9099 8.8285 10.9099 8.8265 10.9146 8.83317L11.5013 12.1732C11.5813 12.7165 11.2106 13.2245 10.6679 13.3132C10.6159 13.3205 10.5626 13.3252 10.5099 13.3252C10.3446 13.3258 10.1813 13.2852 10.0353 13.2065L7.02125 11.6332C7.01192 11.6325 7.00259 11.6352 6.99459 11.6398L3.95992 13.2265C3.81992 13.2972 3.66392 13.3338 3.50659 13.3332Z" fill="#E8C842"/>
</svg>
