<svg width="16" height="16" viewBox="0 0 16 16" fill="none" xmlns="http://www.w3.org/2000/svg">
<path fill-rule="evenodd" clip-rule="evenodd" d="M7.99992 1.3335C4.31778 1.3335 1.33325 4.31802 1.33325 8.00016C1.33325 11.6823 4.31778 14.6668 7.99992 14.6668C11.6821 14.6668 14.6666 11.6823 14.6666 8.00016C14.6666 4.31802 11.6821 1.3335 7.99992 1.3335ZM7.99992 2.3335C11.1298 2.3335 13.6666 4.87031 13.6666 8.00016C13.6666 11.13 11.1298 13.6668 7.99992 13.6668C4.87006 13.6668 2.33325 11.13 2.33325 8.00016C2.33325 4.87031 4.87006 2.3335 7.99992 2.3335ZM8.26976 5.16325C8.23665 4.9192 8.02745 4.73109 7.77432 4.73109C7.49818 4.73109 7.27432 4.95495 7.27432 5.23109V8.46243L7.27989 8.53692C7.30198 8.68363 7.38855 8.8145 7.51816 8.89183L10.0315 10.3912L10.0921 10.422C10.3187 10.5186 10.5874 10.4353 10.7171 10.2179L10.7479 10.1573C10.8445 9.93076 10.7612 9.66205 10.5438 9.53236L8.27406 8.17783L8.27432 5.23109L8.26976 5.16325Z" fill="#F9545B"/>
</svg>
